<?xml version="1.0" encoding="UTF-8" standalone="no"?>
<svg
   enable-background="new 0 0 50 50"
   height="50px"
   id="Layer_1"
   version="1.1"
   viewBox="0 0 50 50"
   width="50px"
   xml:space="preserve"
   sodipodi:docname="phone_icon.svg"
   inkscape:version="1.1 (c68e22c387, 2021-05-23)"
   xmlns:inkscape="http://www.inkscape.org/namespaces/inkscape"
   xmlns:sodipodi="http://sodipodi.sourceforge.net/DTD/sodipodi-0.dtd"
   xmlns="http://www.w3.org/2000/svg"
   xmlns:svg="http://www.w3.org/2000/svg"><defs
     id="defs840" /><sodipodi:namedview
     id="namedview838"
     pagecolor="#ffffff"
     bordercolor="#666666"
     borderopacity="1.0"
     inkscape:pageshadow="2"
     inkscape:pageopacity="0.0"
     inkscape:pagecheckerboard="0"
     showgrid="false"
     inkscape:zoom="16.66"
     inkscape:cx="25"
     inkscape:cy="29.801921"
     inkscape:window-width="1920"
     inkscape:window-height="1051"
     inkscape:window-x="-9"
     inkscape:window-y="-9"
     inkscape:window-maximized="1"
     inkscape:current-layer="Layer_1" /><rect
     fill="none"
     height="50"
     width="50"
     id="rect833" /><path
     d="m 30.217,35.312024 c 0,0 4.049,-2.318 5.109,-2.875 1.057,-0.559 2.152,-0.7 2.817,-0.294 1.007,0.616 9.463,6.241 10.175,6.739 0.712,0.499 1.055,1.924 0.076,3.32 -0.975,1.396 -5.473,6.916 -7.379,6.857 -1.909,-0.062 -9.846,-0.236 -24.813,-15.207 C 1.238,18.886024 1.061,10.947024 1,9.038024 c -0.061,-1.908 5.459,-6.407 6.855,-7.383 1.398,-0.97499999 2.825,-0.608 3.321,0.078 0.564,0.781 6.124,9.21 6.736,10.176 0.419,0.66 0.265,1.761 -0.294,2.819 -0.556,1.06 -2.874,5.109 -2.874,5.109 0,0 1.634,2.787 7.16,8.312 5.527,5.526 8.313,7.163 8.313,7.163 z"
     fill="none"
     stroke="#000000"
     stroke-miterlimit="10"
     stroke-width="2"
     id="path835"
     style="fill:none;fill-opacity:1" /><path
     style="fill:#ffffff;fill-opacity:1;stroke-width:0.060024"
     d="M 39.82593,49.959615 C 36.140949,49.501272 32.26673,47.862363 27.791116,44.868531 23.960572,42.3062 20.324478,39.260171 16.005456,34.995447 6.7167401,25.823507 1.291132,17.587143 0.20140004,11.004044 0.12946504,10.569483 0.0931919,10.025816 0.09192729,9.3632497 L 0.09003601,8.3723571 0.36551736,7.8026255 C 0.74566309,7.0164334 1.4151691,6.1543229 2.5431691,4.9985043 3.5277403,3.9896516 4.3382687,3.2422351 5.4921969,2.2791028 7.5626819,0.55096152 8.3916771,0.1179205 9.6338535,0.11563115 c 0.8981355,-0.001655 1.7798545,0.36992743 2.2315305,0.94043425 0.184806,0.2334267 4.906427,7.3342425 6.197704,9.3206896 0.372905,0.573661 0.742168,1.183162 0.820585,1.354447 0.188371,0.411456 0.259853,0.971751 0.196368,1.539189 -0.109249,0.976485 -0.315198,1.424982 -2.112623,4.600688 -0.583581,1.031073 -1.061055,1.901494 -1.061055,1.934267 0,0.08699 1.146539,1.593523 1.874884,2.463562 2.885437,3.446776 7.485303,7.992048 10.730158,10.602803 0.664224,0.534424 1.681122,1.28195 1.743902,1.28195 0.03007,0 0.743724,-0.392051 1.585907,-0.871225 3.501521,-1.992247 3.893207,-2.175841 4.927121,-2.309467 0.622498,-0.08045 1.163133,0.01031 1.707055,0.286589 0.476869,0.242218 3.048583,1.921819 7.753978,5.064166 2.025584,1.352722 2.92251,1.985902 3.068993,2.166542 0.441056,0.543899 0.641615,1.14504 0.641615,1.923129 0,1.244295 -0.39357,2.005951 -2.10019,4.064396 -2.149873,2.593076 -4.175482,4.507785 -5.459948,5.161019 -0.588654,0.299368 -0.880336,0.361707 -1.647938,0.352197 -0.399244,-0.0049 -0.80693,-0.01907 -0.90597,-0.03139 z m 1.63765,-2.025489 c 1.020575,-0.523072 2.618066,-2.016353 4.437853,-4.148356 0.987523,-1.156951 1.68259,-2.070799 1.892289,-2.487912 0.169105,-0.336366 0.195474,-0.450046 0.195474,-0.842723 0,-0.334509 -0.02819,-0.49699 -0.107148,-0.617688 -0.124227,-0.189886 -9.532253,-6.485665 -10.229007,-6.845173 -0.27478,-0.141779 -0.737303,-0.122562 -1.258133,0.05228 -0.430612,0.144552 -2.121759,1.060474 -4.912315,2.660503 l -1.260504,0.722739 -0.270108,-0.155572 c -1.748699,-1.007181 -4.76876,-3.555443 -8.09507,-6.830442 -3.885278,-3.825345 -6.884878,-7.29551 -8.069256,-9.335127 L 13.629998,19.835154 14.76581,17.839913 C 16.261594,15.21232 16.788001,14.246388 16.972345,13.791031 17.173289,13.294664 17.218796,12.6995 17.0768,12.42491 16.967552,12.213649 13.570575,7.0501969 11.572347,4.058066 10.935347,3.104228 10.33781,2.266893 10.244487,2.1973217 10.104182,2.0927264 9.9898794,2.0709035 9.5842227,2.0712629 9.1441255,2.0716531 9.0561879,2.0919722 8.7297449,2.2687038 7.9218373,2.7060929 5.7405313,4.5296338 4.2276233,6.032413 3.1478554,7.104952 2.4510863,7.9484832 2.1464708,8.5519226 1.9666003,8.9082443 1.9646862,8.921892 2.0022752,9.5800306 2.2648142,14.176776 5.6158633,20.468493 11.42999,27.280912 c 3.380019,3.960373 7.856086,8.414212 11.739278,11.68098 6.833459,5.748708 13.110148,8.995882 17.604036,9.10725 0.325782,0.0081 0.463742,-0.01891 0.690276,-0.135016 z"
     id="path2220" /><path
     style="fill:#ffffff;fill-opacity:1;stroke-width:0.060024"
     d="M 39.045618,49.812513 C 34.799051,49.058635 30.339478,46.841944 25.017308,42.83955 22.168354,40.697072 20.02971,38.838714 16.721173,35.630689 8.0372383,27.210569 2.4145704,19.264783 0.68264874,12.965526 0.27457227,11.481291 0.17633402,10.873567 0.13826185,9.5978223 L 0.10315181,8.4213349 0.44973648,7.7542773 C 0.65307023,7.3629292 1.0015337,6.8287425 1.2928173,6.4618541 2.2259522,5.2865176 3.9080875,3.6451858 5.6796444,2.1814384 7.6117473,0.58503999 8.4368637,0.16134767 9.6082119,0.16414218 c 0.7522991,0.001795 1.4902561,0.24631123 1.9754011,0.65453393 0.278879,0.23466109 6.63067,9.76999389 7.151173,10.73536789 0.299275,0.555062 0.391411,1.092 0.301731,1.758373 -0.12409,0.922063 -0.341955,1.401893 -1.899995,4.184582 -1.09834,1.961656 -1.230159,2.21134 -1.230159,2.330074 0,0.0855 0.686501,1.027753 1.341735,1.841594 2.540703,3.155712 7.161874,7.826886 10.513006,10.626764 1.053494,0.880196 2.35253,1.85823 2.468121,1.85823 0.122464,0 0.369138,-0.130609 2.233175,-1.182423 2.820821,-1.591696 3.528174,-1.904172 4.47428,-1.976532 0.539368,-0.04125 1.041049,0.05454 1.492878,0.285043 0.636461,0.324698 9.128224,5.930834 10.238615,6.759383 0.930249,0.69413 1.212389,1.24821 1.211066,2.378355 -4.2e-4,0.341203 -0.03929,0.75407 -0.08845,0.939056 -0.198454,0.746711 -0.743389,1.597196 -1.973605,3.080222 -2.478167,2.987434 -4.631394,4.9287 -5.965262,5.378047 -0.502967,0.169437 -1.845111,0.168337 -2.806303,-0.0023 z M 41.531427,47.9318 c 1.035882,-0.524921 3.334069,-2.767648 5.131195,-5.007368 0.753556,-0.93914 1.108378,-1.456163 1.243645,-1.812158 0.13043,-0.343264 0.149132,-0.97082 0.03565,-1.196308 -0.101917,-0.202509 -0.72938,-0.639321 -5.414907,-3.769623 -4.946939,-3.304945 -4.861821,-3.253186 -5.349899,-3.253186 -0.726861,0 -1.250394,0.249341 -5.034255,2.397644 L 30.222089,36.381325 30.042017,36.27973 C 28.789819,35.573253 26.654629,33.869773 24.189676,31.610664 22.872707,30.403673 19.588517,27.121031 18.386602,25.810324 16.207771,23.434277 14.48919,21.27346 13.777231,20.014842 l -0.103651,-0.183238 1.125667,-1.977627 c 2.15518,-3.786325 2.36762,-4.232745 2.36762,-4.975319 0,-0.356225 -0.018,-0.402291 -0.378581,-0.969068 C 15.218335,9.441892 10.712702,2.6952892 10.39851,2.3417248 L 10.159181,2.0724052 9.6727869,2.0503169 C 9.2332521,2.0303565 9.15012,2.0453743 8.809883,2.2062004 7.936012,2.6192694 5.6987465,4.5034327 3.9002174,6.3409856 2.9301504,7.3321008 2.4683429,7.8981224 2.1617314,8.4717875 1.998228,8.7776999 1.9807923,8.8634082 1.9807923,9.3612293 c 0,0.7414287 0.1452684,1.7067427 0.420409,2.7936327 1.011401,3.995347 3.9330772,9.046501 8.2283887,14.22569 1.959567,2.362802 3.370484,3.89127 6.264464,6.786387 4.326545,4.328248 7.512192,7.063719 11.197182,9.614868 4.765765,3.299377 9.405615,5.258308 12.532008,5.290975 0.543976,0.0057 0.651776,-0.01105 0.908183,-0.140982 z"
     id="path2296" /></svg>
